<?xml version="1.0" encoding="UTF-8"?> <svg xmlns="http://www.w3.org/2000/svg" width="1362" height="1197" viewBox="0 0 1362 1197" fill="none"> <path opacity="0.010101" d="M629.701 478.073L1058.26 356.62C1070.54 353.138 1084.01 359.821 1086.15 370.462L1133.98 608.218C1135.15 614.027 1132.59 619.824 1127.22 623.56L717.606 908.05C712.228 911.785 704.786 912.932 697.913 911.085L416.597 835.492C404.007 832.108 397.995 820.248 404.145 810.925L618.681 485.727C621.051 482.136 624.969 479.414 629.701 478.073Z" stroke="url(#paint0_linear_43_277)" stroke-width="2"></path> <path opacity="0.030303" d="M637.533 467.675L1061 357.325C1073.27 354.128 1086.26 361.587 1087.78 372.701L1120.98 615.791C1121.79 621.77 1119.01 627.581 1113.61 631.195L699.077 908.357C693.672 911.971 686.392 912.886 679.78 910.782L410.915 825.26C398.623 821.35 393.23 808.812 399.799 799.414L626.527 475.034C629.003 471.492 632.909 468.88 637.533 467.675Z" stroke="url(#paint1_linear_43_277)" stroke-width="2"></path> <path opacity="0.050505" d="M645.477 457.531L1063.4 358.318C1075.62 355.418 1088.03 363.611 1088.9 375.148L1107.61 623.317C1108.07 629.456 1105.06 635.284 1099.63 638.784L680.777 908.286C675.338 911.786 668.215 912.477 661.874 910.12L405.534 814.852C393.618 810.423 388.928 797.261 395.9 787.815L634.452 464.625C637.038 461.121 640.946 458.607 645.477 457.531Z" stroke="url(#paint2_linear_43_277)" stroke-width="2"></path> <path opacity="0.0707071" d="M653.523 447.647L1065.48 359.594C1077.6 357.002 1089.34 365.87 1089.55 377.771L1093.9 630.778C1094.01 637.07 1090.77 642.919 1085.28 646.312L662.727 907.836C657.245 911.229 650.274 911.704 644.212 909.096L400.459 804.255C388.993 799.324 385.08 785.609 392.438 776.143L642.441 454.506C645.144 451.028 649.069 448.599 653.523 447.647Z" stroke="url(#paint3_linear_43_277)" stroke-width="2"></path> <path opacity="0.0909091" d="M661.647 438.035L1067.2 361.151C1079.2 358.877 1090.2 368.345 1089.73 380.546L1079.86 638.167C1079.61 644.603 1076.12 650.476 1070.59 653.769L644.939 907.011C639.404 910.304 632.578 910.569 626.804 907.715L395.691 793.466C384.746 788.055 381.671 773.874 389.394 764.416L650.469 444.686C653.296 441.223 657.254 438.868 661.647 438.035Z" stroke="url(#paint4_linear_43_277)" stroke-width="2"></path> <path opacity="0.111111" d="M669.833 428.704L1068.58 362.987C1080.41 361.037 1090.6 371.02 1089.46 383.449L1065.5 645.469C1064.9 652.041 1061.16 657.941 1055.56 661.14L627.429 905.811C621.832 909.01 615.143 909.072 609.666 905.975L391.244 782.475C380.882 776.617 378.693 762.065 386.755 752.646L658.518 435.17C661.48 431.71 665.488 429.42 669.833 428.704Z" stroke="url(#paint5_linear_43_277)" stroke-width="2"></path> <path opacity="0.131313" d="M678.065 419.661L1069.61 365.1C1081.24 363.479 1090.57 373.881 1088.77 386.467L1050.83 652.674C1049.88 659.371 1045.87 665.301 1040.2 668.412L610.212 904.241C604.541 907.351 597.984 907.215 592.809 903.879L387.136 771.281C377.412 765.012 376.134 750.195 384.511 740.843L666.57 425.966C669.677 422.497 673.751 420.262 678.065 419.661Z" stroke="url(#paint6_linear_43_277)" stroke-width="2"></path> <path opacity="0.151515" d="M686.322 410.916L1070.27 367.488C1081.66 366.2 1090.11 376.921 1087.68 389.59L1035.88 659.769C1034.57 666.584 1030.29 672.545 1024.54 675.571L593.3 902.303C587.545 905.329 581.111 904.999 576.247 901.429L383.388 759.884C374.345 753.247 373.987 738.273 382.651 729.016L674.604 417.077C677.869 413.589 682.028 411.402 686.322 410.916Z" stroke="url(#paint7_linear_43_277)" stroke-width="2"></path> <path opacity="0.171717" d="M694.586 402.479L1070.54 370.151C1081.67 369.195 1089.23 380.137 1086.19 392.817L1020.64 666.746C1018.98 673.668 1014.43 679.661 1008.58 682.605L576.702 900.003C570.853 902.947 564.538 902.428 559.991 898.629L380.021 748.29C371.691 741.331 372.244 726.308 381.165 717.172L682.601 408.512C686.038 404.992 690.299 402.847 694.586 402.479Z" stroke="url(#paint8_linear_43_277)" stroke-width="2"></path> <path opacity="0.191919" d="M702.838 394.356L1070.43 373.086C1081.26 372.459 1087.93 383.528 1084.33 396.149L1005.14 673.593C1003.14 680.612 998.289 686.635 992.336 689.499L560.432 897.344C554.479 900.209 548.277 899.504 544.053 895.483L377.062 736.508C369.465 729.276 370.899 714.305 380.049 705.315L690.545 400.271C694.168 396.712 698.548 394.604 702.838 394.356Z" stroke="url(#paint9_linear_43_277)" stroke-width="2"></path> <path opacity="0.212121" d="M711.06 386.554L1069.9 376.287C1080.41 375.986 1086.23 387.095 1082.1 399.594L989.39 680.3C987.044 687.404 981.898 693.454 975.833 696.239L544.499 894.333C538.434 897.118 532.34 896.23 528.445 891.993L374.53 724.55C367.676 717.094 369.949 702.272 379.298 693.45L698.417 392.361C702.242 388.752 706.759 386.678 711.06 386.554Z" stroke="url(#paint10_linear_43_277)" stroke-width="2"></path> <path opacity="0.232323" d="M719.232 379.083L1068.95 379.751C1079.12 379.771 1084.11 390.841 1079.5 403.161L973.404 686.857C970.72 694.033 965.269 700.107 959.084 702.812L528.912 890.973C522.727 893.678 516.738 892.608 513.178 888.163L372.443 712.435C366.331 704.804 369.388 690.213 378.908 681.58L706.199 384.783C710.241 381.118 714.914 379.075 719.232 379.083Z" stroke="url(#paint11_linear_43_277)" stroke-width="2"></path> <path opacity="0.252525" d="M727.336 371.948L1067.56 383.473C1077.38 383.806 1081.59 394.769 1076.55 406.861L957.195 693.254C954.179 700.491 948.418 706.582 942.107 709.205L513.679 887.271C507.368 889.894 501.48 888.645 498.26 884L370.814 700.184C365.433 692.423 369.212 678.138 378.874 669.711L713.875 377.543C718.15 373.814 722.994 371.801 727.336 371.948Z" stroke="url(#paint12_linear_43_277)" stroke-width="2"></path> <path opacity="0.272727" d="M735.351 365.156L1065.73 387.445C1075.17 388.081 1078.65 398.883 1073.23 410.703L940.779 699.482C937.438 706.767 931.362 712.867 924.92 715.404L498.808 883.234C492.366 885.771 486.578 884.344 483.701 879.508L369.653 687.816C364.985 679.97 369.416 666.051 379.194 657.846L721.427 370.64C725.951 366.843 730.983 364.861 735.351 365.156Z" stroke="url(#paint13_linear_43_277)" stroke-width="2"></path> <path opacity="0.292929" d="M743.258 358.714L1063.44 391.659C1072.49 392.59 1075.3 403.185 1069.55 414.696L924.169 705.532C920.511 712.851 914.116 718.951 907.539 721.399L484.306 878.867C477.728 881.315 472.039 879.71 469.508 874.694L368.961 675.357C364.982 667.467 369.995 653.962 379.861 645.991L728.837 364.079C733.627 360.21 738.864 358.261 743.258 358.714Z" stroke="url(#paint14_linear_43_277)" stroke-width="2"></path> <path opacity="0.313131" d="M751.041 352.624L1060.68 396.104C1069.34 397.32 1071.53 407.673 1065.49 418.847L907.383 711.392C903.416 718.732 896.701 724.823 889.985 727.175L470.182 874.178C463.466 876.529 457.874 874.748 455.692 869.561L368.742 662.827C365.421 654.931 370.944 641.877 380.875 634.153L736.092 357.859C741.163 353.915 746.621 352.004 751.041 352.624Z" stroke="url(#paint15_linear_43_277)" stroke-width="2"></path> <path opacity="0.333333" d="M758.679 346.894L1057.46 400.771C1065.71 402.26 1067.33 412.345 1061.06 423.16L890.434 717.054C886.168 724.402 879.134 730.472 872.277 732.722L456.443 869.171C449.586 871.421 444.092 869.462 442.26 864.115L368.989 650.251C366.293 642.381 372.257 629.807 382.229 622.338L743.175 351.981C748.542 347.961 754.236 346.093 758.679 346.894Z" stroke="url(#paint16_linear_43_277)" stroke-width="2"></path> <path opacity="0.353535" d="M766.154 341.526L1053.76 405.65C1061.61 407.4 1062.71 417.2 1056.24 427.638L873.337 722.509C868.782 729.852 861.429 735.889 854.432 738.029L443.092 863.857C436.095 865.997 430.698 863.861 429.215 858.364L369.693 637.65C367.586 629.838 373.924 617.761 383.914 610.556L750.068 346.447C755.747 342.351 761.693 340.532 766.154 341.526Z" stroke="url(#paint17_linear_43_277)" stroke-width="2"></path> <path opacity="0.373737" d="M773.447 336.526L1049.59 410.73C1057.03 412.728 1057.66 422.23 1051.03 432.281L856.11 727.747C851.276 735.073 843.606 741.064 836.468 743.087L430.138 858.242C423 860.264 417.701 857.95 416.567 852.314L370.843 625.048C369.288 617.317 375.938 605.75 385.925 598.814L756.758 341.256C762.763 337.085 768.976 335.324 773.447 336.526Z" stroke="url(#paint18_linear_43_277)" stroke-width="2"></path> <path opacity="0.393939" d="M780.543 331.894L1044.94 415.996C1051.97 418.23 1052.18 427.429 1045.43 437.085L838.768 732.758C833.667 740.056 825.683 745.986 818.406 747.883L417.587 852.332C410.309 854.228 405.108 851.734 404.32 845.97L372.428 612.462C371.387 604.837 378.289 593.783 388.253 587.121L763.23 336.406C769.575 332.163 776.069 330.471 780.543 331.894Z" stroke="url(#paint19_linear_43_277)" stroke-width="2"></path> <path opacity="0.414141" d="M787.422 327.635L1039.82 421.438C1046.43 423.896 1046.27 432.79 1039.43 442.048L821.328 737.535C815.971 744.794 807.678 750.649 800.262 752.409L405.442 846.137C398.027 847.897 392.924 845.222 392.481 839.34L374.432 599.914C373.866 592.412 380.968 581.873 390.89 575.488L769.469 331.897C776.168 327.587 782.956 325.975 787.422 327.635Z" stroke="url(#paint20_linear_43_277)" stroke-width="2"></path> <path opacity="0.434343" d="M794.067 323.75L1034.22 427.043C1040.43 429.713 1039.92 438.302 1033.03 447.163L803.806 742.069C798.203 749.278 789.606 755.044 782.056 756.658L393.708 839.666C386.158 841.279 381.156 838.42 381.053 832.431L376.837 587.422C376.71 580.06 383.962 570.029 393.825 563.926L775.46 327.727C782.525 323.355 789.621 321.838 794.067 323.75Z" stroke="url(#paint21_linear_43_277)" stroke-width="2"></path> <path opacity="0.454545" d="M800.46 320.242L1028.15 432.8C1033.95 435.667 1033.14 443.956 1026.23 452.422L786.217 746.353C780.38 753.502 771.486 759.163 763.804 760.619L382.389 832.927C374.707 834.383 369.806 831.337 370.039 825.251L379.625 575.003C379.901 567.795 387.259 558.265 397.045 552.443L781.19 323.895C788.632 319.467 796.049 318.061 800.46 320.242Z" stroke="url(#paint22_linear_43_277)" stroke-width="2"></path> <path opacity="0.474747" d="M806.588 317.11L1021.62 438.693C1027.02 441.746 1025.93 449.74 1019.02 457.817L768.581 750.377C762.521 757.457 753.336 762.998 745.527 764.285L371.489 825.928C363.68 827.215 358.882 823.979 359.447 817.805L382.781 562.672C383.425 555.629 390.85 546.59 400.542 541.051L786.647 320.396C794.477 315.921 802.227 314.644 806.588 317.11Z" stroke="url(#paint23_linear_43_277)" stroke-width="2"></path> <path opacity="0.494949" d="M812.432 314.354L1014.63 444.712C1019.63 447.936 1018.3 455.642 1011.4 463.337L750.914 754.135C744.642 761.137 735.175 766.541 727.243 767.647L361.012 818.68C353.081 819.786 348.388 816.355 349.279 810.102L386.285 550.446C387.264 543.575 394.72 535.016 404.303 529.76L791.819 317.227C800.046 312.714 808.139 311.587 812.432 314.354Z" stroke="url(#paint24_linear_43_277)" stroke-width="2"></path> <path opacity="0.515152" d="M817.974 311.978L1007.18 450.843C1011.79 454.226 1010.24 461.653 1003.39 468.973L733.23 757.622C726.756 764.539 717.015 769.79 708.967 770.7L350.956 811.194C342.908 812.105 338.323 808.475 339.535 802.152L390.115 538.34C391.398 531.649 398.853 523.555 408.313 518.581L796.69 314.385C805.322 309.847 813.769 308.891 817.974 311.978Z" stroke="url(#paint25_linear_43_277)" stroke-width="2"></path> <path opacity="0.535354" d="M823.202 309.977L999.289 457.073C1003.51 460.602 1001.76 467.757 994.968 474.712L715.548 760.829C708.883 767.654 698.878 772.734 690.72 773.435L341.327 803.479C333.169 804.18 328.694 800.345 330.221 793.962L394.257 526.365C395.813 519.861 403.239 512.217 412.563 507.524L801.253 311.865C810.296 307.312 819.106 306.555 823.202 309.977Z" stroke="url(#paint26_linear_43_277)" stroke-width="2"></path> <path opacity="0.555556" d="M828.1 308.352L990.955 463.389C994.801 467.05 992.871 473.943 986.153 480.544L697.885 763.75C691.039 770.476 680.78 775.369 672.52 775.847L332.124 795.544C323.864 796.021 319.502 791.975 321.339 785.539L398.688 514.537C400.491 508.221 407.864 501.013 417.038 496.598L805.497 309.66C814.955 305.108 824.135 304.577 828.1 308.352Z" stroke="url(#paint27_linear_43_277)" stroke-width="2"></path> <path opacity="0.575758" d="M832.652 307.101L982.187 469.779C985.663 473.56 983.576 480.199 976.945 486.455L680.256 766.382C673.238 773.003 662.737 777.69 654.383 777.929L323.346 787.401C314.992 787.64 310.748 783.375 312.888 776.894L403.391 502.866C405.413 496.742 412.712 489.954 421.723 485.815L809.412 307.766C819.288 303.231 828.842 302.957 832.652 307.101Z" stroke="url(#paint28_linear_43_277)" stroke-width="2"></path> <path opacity="0.59596" d="M836.842 306.222L972.995 476.228C976.109 480.117 973.881 486.511 967.349 492.435L662.677 768.72C655.498 775.23 644.767 779.693 636.33 779.677L314.993 779.062C306.555 779.046 302.433 774.555 304.871 768.036L408.344 491.366C410.562 485.434 417.768 479.049 426.606 475.184L812.989 306.177C823.283 301.674 833.215 301.693 836.842 306.222Z" stroke="url(#paint29_linear_43_277)" stroke-width="2"></path> <path opacity="0.616162" d="M840.658 305.712L963.387 482.725C966.149 486.709 963.796 492.867 957.372 498.47L645.166 770.758C637.834 777.152 626.887 781.372 618.377 781.083L307.062 770.537C298.552 770.249 294.558 765.523 297.288 758.973L413.53 480.048C415.922 474.308 423.018 468.31 431.672 464.713L816.222 304.884C826.931 300.433 837.241 300.782 840.658 305.712Z" stroke="url(#paint30_linear_43_277)" stroke-width="2"></path> <path opacity="0.636364" d="M844.084 305.567L953.371 489.257C955.79 493.323 953.326 499.255 947.017 504.549L627.736 772.493C620.26 778.767 609.112 782.724 600.542 782.146L299.551 761.839C290.981 761.261 287.122 756.292 290.137 749.717L418.927 468.922C421.472 463.374 428.446 457.746 436.907 454.414L819.102 303.881C830.222 299.502 840.904 300.222 844.084 305.567Z" stroke="url(#paint31_linear_43_277)" stroke-width="2"></path> <path opacity="0.656566" d="M847.102 305.785L942.953 495.813C945.04 499.95 942.476 505.664 936.29 510.662L610.398 773.926C602.788 780.074 591.454 783.749 582.839 782.862L292.45 752.983C283.835 752.096 280.118 746.872 283.413 740.281L424.512 458.002C427.191 452.644 434.032 447.37 442.291 444.297L821.621 303.163C833.143 298.876 844.19 300.013 847.102 305.785Z" stroke="url(#paint32_linear_43_277)" stroke-width="2"></path> <path opacity="0.676768" d="M849.712 306.352L932.157 502.373C933.922 506.57 931.269 512.075 925.21 516.787L593.182 775.045C585.445 781.063 573.945 784.435 565.3 783.221L285.768 743.97C277.124 742.756 273.56 737.268 277.129 730.665L430.28 447.29C433.075 442.119 439.775 437.182 447.825 434.363L823.789 302.712C835.702 298.54 847.1 300.141 849.712 306.352Z" stroke="url(#paint33_linear_43_277)" stroke-width="2"></path> <path opacity="0.69697" d="M851.896 307.265L920.986 508.927C922.441 513.173 919.709 518.478 913.78 522.919L576.094 775.853C568.24 781.736 556.592 784.786 547.937 783.225L279.493 734.818C270.838 733.257 267.438 727.494 271.275 720.886L436.203 436.8C439.099 431.812 445.651 427.196 453.486 424.626L825.597 302.523C837.886 298.491 849.614 300.606 851.896 307.265Z" stroke="url(#paint34_linear_43_277)" stroke-width="2"></path> <path opacity="0.717172" d="M853.64 308.518L909.45 515.465C910.606 519.75 907.803 524.862 902.006 529.044L559.148 776.348C551.184 782.093 539.411 784.799 530.767 782.872L273.615 725.538C264.971 723.611 261.748 717.562 265.846 710.955L442.261 426.541C445.244 421.732 451.644 417.422 459.259 415.092L827.044 302.588C839.69 298.72 851.721 301.402 853.64 308.518Z" stroke="url(#paint35_linear_43_277)" stroke-width="2"></path> <path opacity="0.737374" d="M854.936 310.097L897.563 521.971C898.431 526.286 895.564 531.216 889.899 535.15L542.36 776.53C534.294 782.132 522.42 784.473 513.811 782.16L268.128 716.141C259.518 713.828 256.488 707.481 260.842 700.881L448.437 416.523C451.495 411.887 457.74 407.865 465.132 405.77L828.133 302.895C841.112 299.217 853.412 302.522 854.936 310.097Z" stroke="url(#paint36_linear_43_277)" stroke-width="2"></path> <path opacity="0.757576" d="M855.775 311.992L885.336 528.433C885.928 532.769 883.004 537.525 877.47 541.226L525.743 776.396C517.583 781.851 505.636 783.808 497.088 781.089L263.023 706.636C254.475 703.917 251.654 697.263 256.258 690.676L454.71 406.751C457.832 402.284 463.922 398.535 471.091 396.667L828.869 303.434C842.155 299.972 854.677 303.955 855.775 311.992Z" stroke="url(#paint37_linear_43_277)" stroke-width="2"></path> <path opacity="0.777778" d="M856.149 314.189L872.783 534.838C873.111 539.189 870.133 543.781 864.727 547.259L509.31 775.947C501.064 781.253 489.073 782.805 480.616 779.662L258.289 697.035C249.832 693.891 247.242 686.92 252.09 680.351L461.061 397.237C464.24 392.931 470.176 389.439 477.12 387.79L829.258 304.195C842.818 300.976 855.508 305.693 856.149 314.189Z" stroke="url(#paint38_linear_43_277)" stroke-width="2"></path> <path opacity="0.79798" d="M856.054 316.67L859.918 541.173C859.993 545.532 856.964 549.969 851.682 553.238L493.076 775.183C484.752 780.335 472.75 781.465 464.418 777.881L253.917 687.342C245.585 683.759 243.246 676.46 248.333 669.916L467.473 387.985C470.701 383.833 476.487 380.582 483.208 379.145L829.311 305.167C843.108 302.218 855.9 307.72 856.054 316.67Z" stroke="url(#paint39_linear_43_277)" stroke-width="2"></path> <path opacity="0.818182" d="M855.488 319.416L846.754 547.425C846.587 551.788 843.51 556.08 838.347 559.152L477.053 774.105C468.658 779.1 456.68 779.79 448.509 775.751L249.895 677.568C241.724 673.529 239.662 665.898 244.982 659.383L473.925 379.003C477.197 374.997 482.838 371.972 489.339 370.74L829.038 306.341C843.031 303.688 855.847 310.024 855.488 319.416Z" stroke="url(#paint40_linear_43_277)" stroke-width="2"></path> <path opacity="0.838384" d="M854.45 322.405L833.307 553.58C832.908 557.945 829.783 562.102 824.732 564.989L461.253 772.714C452.795 777.547 440.881 777.785 432.911 773.279L246.212 667.716C238.242 663.21 236.485 655.242 242.031 648.763L480.399 370.298C483.712 366.428 489.216 363.615 495.502 362.579L828.455 307.707C842.597 305.376 855.348 312.586 854.45 322.405Z" stroke="url(#paint41_linear_43_277)" stroke-width="2"></path> <path opacity="0.858586" d="M852.944 325.613L819.593 559.627C818.97 563.992 815.796 568.026 810.848 570.74L445.687 771.012C437.175 775.681 425.364 775.454 417.639 770.474L242.855 657.79C235.13 652.81 233.705 644.504 239.473 638.066L486.876 361.876C490.229 358.133 495.603 355.517 501.682 354.67L827.575 309.258C841.815 307.273 854.401 315.387 852.944 325.613Z" stroke="url(#paint42_linear_43_277)" stroke-width="2"></path> <path opacity="0.878788" d="M850.975 329.015L805.624 565.554C804.787 569.919 801.561 573.84 796.705 576.393L430.366 769.003C421.807 773.503 410.144 772.805 402.708 767.348L239.813 647.794C232.377 642.337 231.317 633.697 237.299 627.306L493.336 353.742C496.729 350.116 501.985 347.684 507.863 347.019L826.413 310.988C840.697 309.372 853.009 318.408 850.975 329.015Z" stroke="url(#paint43_linear_43_277)" stroke-width="2"></path> <path opacity="0.89899" d="M848.557 332.58L791.421 571.346C790.376 575.714 787.093 579.534 782.319 581.937L415.303 766.686C406.705 771.014 395.234 769.843 388.135 763.912L237.078 637.725C229.979 631.795 229.315 622.829 235.505 616.49L499.762 345.899C503.199 342.38 508.348 340.118 514.036 339.629L824.988 312.891C839.258 311.664 851.179 321.623 848.557 332.58Z" stroke="url(#paint44_linear_43_277)" stroke-width="2"></path> <path opacity="0.919192" d="M845.702 336.282L776.997 576.995C775.749 581.369 772.403 585.1 767.699 587.364L400.505 764.068C391.877 768.221 380.644 766.579 373.927 760.185L234.642 627.585C227.925 621.191 227.688 611.913 234.08 605.633L506.135 338.355C509.62 334.931 514.675 332.827 520.183 332.508L823.313 314.968C837.507 314.147 848.919 325.01 845.702 336.282Z" stroke="url(#paint45_linear_43_277)" stroke-width="2"></path> <path opacity="0.939394" d="M842.427 340.091L762.371 582.488C760.923 586.873 757.506 590.527 752.858 592.662L385.984 761.151C377.334 765.124 366.382 763.022 360.095 756.182L232.498 617.37C226.21 610.53 226.43 600.959 233.018 594.743L512.437 331.11C515.977 327.771 520.953 325.813 526.291 325.66L821.4 317.216C835.457 316.814 846.24 328.545 842.427 340.091Z" stroke="url(#paint46_linear_43_277)" stroke-width="2"></path> <path opacity="0.959596" d="M838.752 343.979L747.559 587.815C745.913 592.217 742.415 595.807 737.809 597.822L371.747 757.94C363.083 761.73 352.457 759.181 346.641 751.919L230.643 607.079C224.827 599.817 225.532 589.977 232.31 583.832L518.651 324.17C522.253 320.903 527.167 319.081 532.347 319.091L819.259 319.639C833.115 319.666 843.156 332.204 838.752 343.979Z" stroke="url(#paint47_linear_43_277)" stroke-width="2"></path> <path opacity="0.979798" d="M834.701 347.922L732.58 592.964C730.735 597.392 727.145 600.929 722.567 602.832L357.806 754.437C349.136 758.04 338.874 755.067 333.569 747.414L229.079 596.707C223.773 589.054 224.988 578.978 231.947 572.909L524.761 317.534C528.437 314.328 533.303 312.632 538.336 312.803L816.894 322.239C830.486 322.699 839.684 335.966 834.701 347.922Z" stroke="url(#paint48_linear_43_277)" stroke-width="2"></path> <path d="M830.292 351.9L717.448 597.929C715.402 602.39 711.708 605.887 707.141 607.686L344.164 750.649C335.498 754.062 325.635 750.69 320.873 742.685L227.805 586.255C223.042 578.251 224.785 567.974 231.919 561.987L530.749 311.206C534.509 308.05 539.344 306.472 544.242 306.803L814.301 325.022C827.568 325.917 835.835 339.814 830.292 351.9Z" stroke="url(#paint49_linear_43_277)" stroke-width="2"></path> <defs> <linearGradient id="paint0_linear_43_277" x1="576.28" y1="785.918" x2="932.224" y2="412.027" gradientUnits="userSpaceOnUse"> <stop stop-color="#2AC2E4"></stop> <stop offset="1" stop-color="#3257DA"></stop> </linearGradient> <linearGradient id="paint1_linear_43_277" x1="568.47" y1="779.541" x2="951.721" y2="427.251" gradientUnits="userSpaceOnUse"> <stop stop-color="#2AC2E4"></stop> <stop offset="1" stop-color="#3257DA"></stop> </linearGradient> <linearGradient id="paint2_linear_43_277" x1="560.942" y1="773.015" x2="969.361" y2="445.925" gradientUnits="userSpaceOnUse"> <stop stop-color="#2AC2E4"></stop> <stop offset="1" stop-color="#3257DA"></stop> </linearGradient> <linearGradient id="paint3_linear_43_277" x1="553.701" y1="766.342" x2="984.442" y2="467.698" gradientUnits="userSpaceOnUse"> <stop stop-color="#2AC2E4"></stop> <stop offset="1" stop-color="#3257DA"></stop> </linearGradient> <linearGradient id="paint4_linear_43_277" x1="546.744" y1="759.533" x2="996.344" y2="492.042" gradientUnits="userSpaceOnUse"> <stop stop-color="#2AC2E4"></stop> <stop offset="1" stop-color="#3257DA"></stop> </linearGradient> <linearGradient id="paint5_linear_43_277" x1="540.074" y1="752.591" x2="1004.6" y2="518.282" gradientUnits="userSpaceOnUse"> <stop stop-color="#2AC2E4"></stop> <stop offset="1" stop-color="#3257DA"></stop> </linearGradient> <linearGradient id="paint6_linear_43_277" x1="533.689" y1="745.524" x2="1008.92" y2="545.644" gradientUnits="userSpaceOnUse"> <stop stop-color="#2AC2E4"></stop> <stop offset="1" stop-color="#3257DA"></stop> </linearGradient> <linearGradient id="paint7_linear_43_277" x1="527.588" y1="738.338" x2="1009.23" y2="573.325" gradientUnits="userSpaceOnUse"> <stop stop-color="#2AC2E4"></stop> <stop offset="1" stop-color="#3257DA"></stop> </linearGradient> <linearGradient id="paint8_linear_43_277" x1="521.77" y1="731.041" x2="1005.64" y2="600.55" gradientUnits="userSpaceOnUse"> <stop stop-color="#2AC2E4"></stop> <stop offset="1" stop-color="#3257DA"></stop> </linearGradient> <linearGradient id="paint9_linear_43_277" x1="516.235" y1="723.638" x2="998.432" y2="626.625" gradientUnits="userSpaceOnUse"> <stop stop-color="#2AC2E4"></stop> <stop offset="1" stop-color="#3257DA"></stop> </linearGradient> <linearGradient id="paint10_linear_43_277" x1="510.98" y1="716.137" x2="988.031" y2="650.982" gradientUnits="userSpaceOnUse"> <stop stop-color="#2AC2E4"></stop> <stop offset="1" stop-color="#3257DA"></stop> </linearGradient> <linearGradient id="paint11_linear_43_277" x1="506.004" y1="708.544" x2="974.933" y2="673.194" gradientUnits="userSpaceOnUse"> <stop stop-color="#2AC2E4"></stop> <stop offset="1" stop-color="#3257DA"></stop> </linearGradient> <linearGradient id="paint12_linear_43_277" x1="501.303" y1="700.868" x2="959.674" y2="692.98" gradientUnits="userSpaceOnUse"> <stop stop-color="#2AC2E4"></stop> <stop offset="1" stop-color="#3257DA"></stop> </linearGradient> <linearGradient id="paint13_linear_43_277" x1="496.876" y1="693.115" x2="942.786" y2="710.195" gradientUnits="userSpaceOnUse"> <stop stop-color="#2AC2E4"></stop> <stop offset="1" stop-color="#3257DA"></stop> </linearGradient> <linearGradient id="paint14_linear_43_277" x1="492.717" y1="685.292" x2="924.766" y2="724.806" gradientUnits="userSpaceOnUse"> <stop stop-color="#2AC2E4"></stop> <stop offset="1" stop-color="#3257DA"></stop> </linearGradient> <linearGradient id="paint15_linear_43_277" x1="488.825" y1="677.407" x2="906.062" y2="736.871" gradientUnits="userSpaceOnUse"> <stop stop-color="#2AC2E4"></stop> <stop offset="1" stop-color="#3257DA"></stop> </linearGradient> <linearGradient id="paint16_linear_43_277" x1="485.196" y1="669.466" x2="887.055" y2="746.513" gradientUnits="userSpaceOnUse"> <stop stop-color="#2AC2E4"></stop> <stop offset="1" stop-color="#3257DA"></stop> </linearGradient> <linearGradient id="paint17_linear_43_277" x1="481.825" y1="661.477" x2="868.059" y2="753.902" gradientUnits="userSpaceOnUse"> <stop stop-color="#2AC2E4"></stop> <stop offset="1" stop-color="#3257DA"></stop> </linearGradient> <linearGradient id="paint18_linear_43_277" x1="478.708" y1="653.448" x2="849.33" y2="759.231" gradientUnits="userSpaceOnUse"> <stop stop-color="#2AC2E4"></stop> <stop offset="1" stop-color="#3257DA"></stop> </linearGradient> <linearGradient id="paint19_linear_43_277" x1="475.84" y1="645.385" x2="831.062" y2="762.703" gradientUnits="userSpaceOnUse"> <stop stop-color="#2AC2E4"></stop> <stop offset="1" stop-color="#3257DA"></stop> </linearGradient> <linearGradient id="paint20_linear_43_277" x1="473.218" y1="637.295" x2="813.402" y2="764.523" gradientUnits="userSpaceOnUse"> <stop stop-color="#2AC2E4"></stop> <stop offset="1" stop-color="#3257DA"></stop> </linearGradient> <linearGradient id="paint21_linear_43_277" x1="470.833" y1="629.187" x2="796.451" y2="764.888" gradientUnits="userSpaceOnUse"> <stop stop-color="#2AC2E4"></stop> <stop offset="1" stop-color="#3257DA"></stop> </linearGradient> <linearGradient id="paint22_linear_43_277" x1="468.681" y1="621.068" x2="780.277" y2="763.985" gradientUnits="userSpaceOnUse"> <stop stop-color="#2AC2E4"></stop> <stop offset="1" stop-color="#3257DA"></stop> </linearGradient> <linearGradient id="paint23_linear_43_277" x1="466.758" y1="612.944" x2="764.923" y2="761.984" gradientUnits="userSpaceOnUse"> <stop stop-color="#2AC2E4"></stop> <stop offset="1" stop-color="#3257DA"></stop> </linearGradient> <linearGradient id="paint24_linear_43_277" x1="465.058" y1="604.822" x2="750.407" y2="759.04" gradientUnits="userSpaceOnUse"> <stop stop-color="#2AC2E4"></stop> <stop offset="1" stop-color="#3257DA"></stop> </linearGradient> <linearGradient id="paint25_linear_43_277" x1="463.57" y1="596.711" x2="736.728" y2="755.295" gradientUnits="userSpaceOnUse"> <stop stop-color="#2AC2E4"></stop> <stop offset="1" stop-color="#3257DA"></stop> </linearGradient> <linearGradient id="paint26_linear_43_277" x1="462.292" y1="588.617" x2="723.879" y2="750.873" gradientUnits="userSpaceOnUse"> <stop stop-color="#2AC2E4"></stop> <stop offset="1" stop-color="#3257DA"></stop> </linearGradient> <linearGradient id="paint27_linear_43_277" x1="461.217" y1="580.546" x2="711.838" y2="745.883" gradientUnits="userSpaceOnUse"> <stop stop-color="#2AC2E4"></stop> <stop offset="1" stop-color="#3257DA"></stop> </linearGradient> <linearGradient id="paint28_linear_43_277" x1="460.336" y1="572.505" x2="700.579" y2="740.425" gradientUnits="userSpaceOnUse"> <stop stop-color="#2AC2E4"></stop> <stop offset="1" stop-color="#3257DA"></stop> </linearGradient> <linearGradient id="paint29_linear_43_277" x1="459.643" y1="564.503" x2="690.07" y2="734.585" gradientUnits="userSpaceOnUse"> <stop stop-color="#2AC2E4"></stop> <stop offset="1" stop-color="#3257DA"></stop> </linearGradient> <linearGradient id="paint30_linear_43_277" x1="459.13" y1="556.544" x2="680.278" y2="728.438" gradientUnits="userSpaceOnUse"> <stop stop-color="#2AC2E4"></stop> <stop offset="1" stop-color="#3257DA"></stop> </linearGradient> <linearGradient id="paint31_linear_43_277" x1="458.788" y1="548.636" x2="671.164" y2="722.051" gradientUnits="userSpaceOnUse"> <stop stop-color="#2AC2E4"></stop> <stop offset="1" stop-color="#3257DA"></stop> </linearGradient> <linearGradient id="paint32_linear_43_277" x1="458.606" y1="540.79" x2="662.689" y2="715.487" gradientUnits="userSpaceOnUse"> <stop stop-color="#2AC2E4"></stop> <stop offset="1" stop-color="#3257DA"></stop> </linearGradient> <linearGradient id="paint33_linear_43_277" x1="458.589" y1="533.002" x2="654.829" y2="708.788" gradientUnits="userSpaceOnUse"> <stop stop-color="#2AC2E4"></stop> <stop offset="1" stop-color="#3257DA"></stop> </linearGradient> <linearGradient id="paint34_linear_43_277" x1="458.722" y1="525.283" x2="647.54" y2="702.004" gradientUnits="userSpaceOnUse"> <stop stop-color="#2AC2E4"></stop> <stop offset="1" stop-color="#3257DA"></stop> </linearGradient> <linearGradient id="paint35_linear_43_277" x1="458.994" y1="517.641" x2="640.784" y2="695.176" gradientUnits="userSpaceOnUse"> <stop stop-color="#2AC2E4"></stop> <stop offset="1" stop-color="#3257DA"></stop> </linearGradient> <linearGradient id="paint36_linear_43_277" x1="459.399" y1="510.081" x2="634.528" y2="688.34" gradientUnits="userSpaceOnUse"> <stop stop-color="#2AC2E4"></stop> <stop offset="1" stop-color="#3257DA"></stop> </linearGradient> <linearGradient id="paint37_linear_43_277" x1="459.928" y1="502.608" x2="628.738" y2="681.526" gradientUnits="userSpaceOnUse"> <stop stop-color="#2AC2E4"></stop> <stop offset="1" stop-color="#3257DA"></stop> </linearGradient> <linearGradient id="paint38_linear_43_277" x1="460.573" y1="495.228" x2="623.38" y2="674.763" gradientUnits="userSpaceOnUse"> <stop stop-color="#2AC2E4"></stop> <stop offset="1" stop-color="#3257DA"></stop> </linearGradient> <linearGradient id="paint39_linear_43_277" x1="461.326" y1="487.946" x2="618.424" y2="668.075" gradientUnits="userSpaceOnUse"> <stop stop-color="#2AC2E4"></stop> <stop offset="1" stop-color="#3257DA"></stop> </linearGradient> <linearGradient id="paint40_linear_43_277" x1="462.177" y1="480.768" x2="613.837" y2="661.487" gradientUnits="userSpaceOnUse"> <stop stop-color="#2AC2E4"></stop> <stop offset="1" stop-color="#3257DA"></stop> </linearGradient> <linearGradient id="paint41_linear_43_277" x1="463.118" y1="473.699" x2="609.592" y2="655.016" gradientUnits="userSpaceOnUse"> <stop stop-color="#2AC2E4"></stop> <stop offset="1" stop-color="#3257DA"></stop> </linearGradient> <linearGradient id="paint42_linear_43_277" x1="464.141" y1="466.743" x2="605.657" y2="648.684" gradientUnits="userSpaceOnUse"> <stop stop-color="#2AC2E4"></stop> <stop offset="1" stop-color="#3257DA"></stop> </linearGradient> <linearGradient id="paint43_linear_43_277" x1="465.235" y1="459.906" x2="602.006" y2="642.506" gradientUnits="userSpaceOnUse"> <stop stop-color="#2AC2E4"></stop> <stop offset="1" stop-color="#3257DA"></stop> </linearGradient> <linearGradient id="paint44_linear_43_277" x1="466.394" y1="453.192" x2="598.612" y2="636.497" gradientUnits="userSpaceOnUse"> <stop stop-color="#2AC2E4"></stop> <stop offset="1" stop-color="#3257DA"></stop> </linearGradient> <linearGradient id="paint45_linear_43_277" x1="467.606" y1="446.605" x2="595.448" y2="630.673" gradientUnits="userSpaceOnUse"> <stop stop-color="#2AC2E4"></stop> <stop offset="1" stop-color="#3257DA"></stop> </linearGradient> <linearGradient id="paint46_linear_43_277" x1="468.864" y1="440.15" x2="592.488" y2="625.046" gradientUnits="userSpaceOnUse"> <stop stop-color="#2AC2E4"></stop> <stop offset="1" stop-color="#3257DA"></stop> </linearGradient> <linearGradient id="paint47_linear_43_277" x1="470.159" y1="433.83" x2="589.709" y2="619.629" gradientUnits="userSpaceOnUse"> <stop stop-color="#2AC2E4"></stop> <stop offset="1" stop-color="#3257DA"></stop> </linearGradient> <linearGradient id="paint48_linear_43_277" x1="471.483" y1="427.649" x2="587.085" y2="614.432" gradientUnits="userSpaceOnUse"> <stop stop-color="#2AC2E4"></stop> <stop offset="1" stop-color="#3257DA"></stop> </linearGradient> <linearGradient id="paint49_linear_43_277" x1="472.826" y1="421.61" x2="584.592" y2="609.468" gradientUnits="userSpaceOnUse"> <stop stop-color="#2AC2E4"></stop> <stop offset="1" stop-color="#3257DA"></stop> </linearGradient> </defs> </svg> 